# xmcd
# Copyright (C) 1995-1998 Ti Kan
#
# Track frame offsets:
#       150
#       24482
#       66640
#       107374
#       148270
#       191460
#       230573
#       261052
#       284892
#
# Disc length: 3923 seconds
#
# Revision: 0
# Processed by: cddbd v1.5.2PL0 Copyright (c) Steve Scherf et al.
# Submitted via: CD-Import v1.0
#
DISCID=8b0f5109
DTITLE=Epsilon-Blue - We Have A Responsibility To Our Shareholders
DYEAR=2002
DGENRE=
TTITLE0=We B Movin (Featuring Barnaby Weir)
TTITLE1=What To Honour If Not The Planet We Live On (Greenpeace Mx)
TTITLE2=Loose In A Landscape Of Meaning
TTITLE3=May U B Free (Featuring Tama Waipara)
TTITLE4=U R Here/Two Of Everything
TTITLE5=Being (Pearl Mx)
TTITLE6=Let The Island Recompose Itself As Music
TTITLE7=U R A Star (Featuring Josephine)
TTITLE8=Transcendental Object At The End Of Time
EXTD=
EXTT0=
EXTT1=
EXTT2=
EXTT3=
EXTT4=
EXTT5=
EXTT6=
EXTT7=
EXTT8=
PLAYORDER=
